
<svg width="304px" height="95px" viewBox="0 0 304 95" version="1.1" xmlns="http://www.w3.org/2000/svg" xmlns:xlink="http://www.w3.org/1999/xlink">
    <!-- Generator: Sketch 48.2 (47327) - http://www.bohemiancoding.com/sketch -->
    <desc>Created with Sketch.</desc>
    <defs>
        <filter x="-5.5%" y="-8.4%" width="110.9%" height="121.7%" filterUnits="objectBoundingBox" id="filter-1">
            <feOffset dx="0" dy="2" in="SourceAlpha" result="shadowOffsetOuter1"></feOffset>
            <feGaussianBlur stdDeviation="2" in="shadowOffsetOuter1" result="shadowBlurOuter1"></feGaussianBlur>
            <feColorMatrix values="0 0 0 0 0   0 0 0 0 0   0 0 0 0 0  0 0 0 0.704342165 0" type="matrix" in="shadowBlurOuter1" result="shadowMatrixOuter1"></feColorMatrix>
            <feMerge>
                <feMergeNode in="shadowMatrixOuter1"></feMergeNode>
                <feMergeNode in="SourceGraphic"></feMergeNode>
            </feMerge>
        </filter>
        <path d="M117.290474,41.6738544 L117.290474,31.7762803 L116.517128,31.7762803 C116.420459,32.2291128 116.259347,32.5121288 116.033787,32.6253369 C115.808227,32.738545 115.469891,32.7951482 115.018771,32.7951482 C114.599873,32.7951482 114.084314,32.6981142 113.472079,32.5040431 C112.859844,32.3099721 112.175117,32.1078178 111.417879,31.8975741 C110.660641,31.6873305 109.838969,31.4851762 108.952839,31.2911051 C108.066709,31.0970341 107.108092,31 106.076959,31 C104.014693,31 101.91218,31.4285671 99.7693571,32.2857143 C97.6265339,33.1428614 95.6851331,34.3638735 93.9450962,35.9487871 C92.2050593,37.5337006 90.7792172,39.4420374 89.667527,41.6738544 C88.5558368,43.9056715 88,46.3962127 88,49.1455526 C88,51.6684762 88.4994475,54.0134663 89.4983576,56.180593 C90.4972676,58.3477197 91.8264425,60.2317979 93.4859221,61.8328841 C95.1454017,63.4339703 97.0706914,64.6954132 99.2618489,65.6172507 C101.453006,66.5390882 103.724687,67 106.076959,67 C107.108092,67 108.090876,66.9110521 109.02534,66.7331536 C109.959804,66.5552552 110.821754,66.361187 111.611215,66.1509434 C112.400677,65.9406998 113.101514,65.7466316 113.713749,65.5687332 C114.325985,65.3908347 114.825432,65.3018868 115.212107,65.3018868 C115.663228,65.3018868 116.001563,65.3746623 116.227123,65.5202156 C116.452684,65.6657689 116.646018,65.9326126 116.807133,66.3207547 L117.580479,66.3207547 L117.580479,56.0350404 L116.807133,56.0350404 C116.517127,57.3611926 116.066013,58.6388079 115.453778,59.8679245 C114.841542,61.0970412 114.084315,62.1886745 113.182074,63.1428571 C112.279833,64.0970398 111.24066,64.8652262 110.064524,65.4474394 C108.888388,66.0296525 107.575324,66.3207547 106.125293,66.3207547 C104.320811,66.3207547 102.766079,66.0619972 101.461051,65.5444744 C100.156024,65.0269516 99.0926836,64.1213003 98.2709995,62.8274933 C97.4493155,61.5336863 96.8451451,59.787073 96.4584702,57.5876011 C96.0717953,55.3881292 95.8784608,52.6064858 95.8784608,49.2425876 C95.8784608,46.6873188 95.9751281,44.3342426 96.1684655,42.1832884 C96.3618029,40.0323343 96.8048612,38.1806008 97.4976537,36.6280323 C98.1904461,35.0754639 99.213508,33.8625381 100.56687,32.9892183 C101.920232,32.1158986 103.773021,31.6792453 106.125293,31.6792453 C107.86533,31.6792453 109.323395,31.994606 110.499531,32.6253369 C111.675667,33.2560678 112.658451,34.0646851 113.447912,35.0512129 C114.237373,36.0377408 114.881821,37.1212879 115.381276,38.3018868 C115.880731,39.4824857 116.307679,40.6064637 116.66213,41.6738544 L117.290474,41.6738544 Z M122.655561,31.7762803 L122.655561,32.4555256 L127.102299,32.4555256 L127.102299,65.6415094 L122.655561,65.6415094 L122.655561,66.3207547 L153.29939,66.3207547 L153.29939,55.3557951 L152.671046,55.3557951 C152.252149,57.2318153 151.66409,58.8247913 150.906851,60.1347709 C150.149613,61.4447505 149.295719,62.5121253 148.345143,63.3369272 C147.394567,64.1617292 146.379561,64.7520198 145.300094,65.1078167 C144.220627,65.4636136 143.149231,65.6415094 142.085875,65.6415094 L134.110746,65.6415094 L134.110746,32.4555256 L138.557485,32.4555256 L138.557485,31.7762803 L122.655561,31.7762803 Z M165.237916,49.1455526 C165.237916,52.5094508 165.431251,55.2991803 165.817926,57.5148248 C166.204601,59.7304693 166.808771,61.4932549 167.630455,62.8032345 C168.452139,64.1132141 169.515479,65.0269516 170.820507,65.5444744 C172.125534,66.0619972 173.680266,66.3207547 175.484749,66.3207547 C177.869244,66.3207547 179.738144,65.8760152 181.091506,64.9865229 C182.444868,64.0970306 183.459875,62.8679324 184.136556,61.2991914 C184.813237,59.7304504 185.240184,57.8706307 185.41741,55.7196765 C185.594636,53.5687224 185.683247,51.2318185 185.683247,48.7088949 C185.683247,46.4447326 185.610747,44.2857246 185.465744,42.2318059 C185.320741,40.1778873 184.909905,38.3665847 184.233224,36.7978437 C183.556543,35.2291027 182.533481,33.9838321 181.164008,33.0619946 C179.794534,32.1401571 177.901467,31.6792453 175.484749,31.6792453 C173.229146,31.6792453 171.42469,32.1078124 170.071328,32.9649596 C168.717966,33.8221067 167.686849,35.0269464 166.977945,36.5795148 C166.269041,38.1320832 165.801816,39.9757306 165.576255,42.1105121 C165.350695,44.2452937 165.237916,46.5902837 165.237916,49.1455526 Z M157.359456,49.1455526 C157.359456,46.3962127 157.915292,43.9056715 159.026983,41.6738544 C160.138673,39.4420374 161.564515,37.5337006 163.304552,35.9487871 C165.044589,34.3638735 166.994045,33.1428614 169.15298,32.2857143 C171.311914,31.4285671 173.422483,31 175.484749,31 C177.708129,31 179.90731,31.420481 182.082356,32.2614555 C184.257402,33.1024301 186.190747,34.2991836 187.88245,35.851752 C189.574152,37.4043204 190.943605,39.2883986 191.990849,41.5040431 C193.038094,43.7196876 193.561708,46.2183149 193.561708,49 C193.561708,51.4258881 193.070316,53.7304473 192.087518,55.9137466 C191.104719,58.097046 189.7836,60.0134688 188.12412,61.6630728 C186.464641,63.3126767 184.547406,64.6145505 182.37236,65.5687332 C180.197314,66.5229158 177.901467,67 175.484749,67 C173.100254,67 170.812462,66.5390882 168.621305,65.6172507 C166.430147,64.6954132 164.504857,63.4339703 162.845378,61.8328841 C161.185898,60.2317979 159.856723,58.3477197 158.857813,56.180593 C157.858903,54.0134663 157.359456,51.6684762 157.359456,49.1455526 Z M198.63679,55.5498652 L198.63679,66.3207547 L199.410136,66.3207547 C199.571251,65.8679223 199.748474,65.5687339 199.941811,65.4231806 C200.135149,65.2776273 200.457373,65.2048518 200.908494,65.2048518 C201.230723,65.2048518 201.722115,65.3018858 202.382684,65.4959569 C203.043254,65.6900279 203.800481,65.8921822 204.654388,66.1024259 C205.508295,66.3126695 206.426634,66.5148238 207.409432,66.7088949 C208.392231,66.9029659 209.38307,67 210.38198,67 C212.3798,67 214.192312,66.6846393 215.819568,66.0539084 C217.446825,65.4231774 218.8485,64.5741293 220.024636,63.5067385 C221.200772,62.4393478 222.111056,61.1940772 222.755514,59.7708895 C223.399972,58.3477018 223.722196,56.8436737 223.722196,55.2587601 C223.722196,53.6415013 223.424139,52.2830244 222.828015,51.1832884 C222.231891,50.0835525 221.450498,49.1455564 220.48381,48.3692722 C219.517123,47.592988 218.413505,46.9541804 217.172924,46.4528302 C215.932342,45.95148 214.659556,45.4905681 213.354528,45.0700809 C212.049501,44.6495936 210.776715,44.245285 209.536133,43.8571429 C208.295551,43.4690008 207.191934,43.0080889 206.225246,42.4743935 C205.258559,41.9406981 204.477166,41.3018905 203.881042,40.5579515 C203.284918,39.8140125 202.986861,38.8760164 202.986861,37.7439353 C202.986861,36.9999963 203.164084,36.2722408 203.518536,35.5606469 C203.872988,34.849053 204.388547,34.2021592 205.065228,33.6199461 C205.741909,33.0377329 206.571636,32.5687349 207.554435,32.212938 C208.537233,31.8571411 209.673073,31.6792453 210.96199,31.6792453 C212.540912,31.6792453 213.84592,31.9541751 214.877053,32.5040431 C215.908186,33.0539111 216.76208,33.7735805 217.438761,34.6630728 C218.115442,35.5525651 218.671279,36.5471643 219.106288,37.6469003 C219.541297,38.7466362 219.952133,39.862528 220.338808,40.9946092 L220.967152,40.9946092 L220.967152,31.7762803 L220.193806,31.7762803 C220.032691,32.1644224 219.879635,32.4312661 219.734632,32.5768194 C219.589629,32.7223727 219.291571,32.7951482 218.84045,32.7951482 C218.453776,32.7951482 218.026829,32.6981142 217.559596,32.5040431 C217.092364,32.3099721 216.552639,32.1078178 215.940404,31.8975741 C215.328168,31.6873305 214.619275,31.4851762 213.813702,31.2911051 C213.00813,31.0970341 212.07368,31 211.010324,31 C209.334733,31 207.780001,31.283016 206.346082,31.8490566 C204.912162,32.4150972 203.679655,33.159025 202.648522,34.0808625 C201.617389,35.0027 200.811828,36.0619886 200.231816,37.2587601 C199.651804,38.4555316 199.361802,39.7008022 199.361802,40.9946092 C199.361802,42.7412486 199.643748,44.1967597 200.207649,45.361186 C200.77155,46.5256123 201.520721,47.5040392 202.455185,48.296496 C203.38965,49.0889527 204.45299,49.7358465 205.645237,50.2371968 C206.837484,50.738547 208.061936,51.1752003 209.31863,51.5471698 C210.575323,51.9191393 211.799775,52.2830171 212.992023,52.638814 C214.18427,52.9946109 215.24761,53.4312643 216.182074,53.9487871 C217.116538,54.4663099 217.86571,55.1132037 218.429611,55.8894879 C218.993511,56.6657721 219.275458,57.6522851 219.275458,58.8490566 C219.275458,59.4959601 219.146568,60.2479742 218.888785,61.1051213 C218.631001,61.9622684 218.187943,62.7789719 217.559596,63.5552561 C216.93125,64.3315403 216.0693,64.9865202 214.973721,65.5202156 C213.878142,66.053911 212.476467,66.3207547 210.768653,66.3207547 C210.28531,66.3207547 209.761695,66.3126685 209.197794,66.296496 C208.633894,66.2803234 208.037779,66.1832893 207.409432,66.0053908 C206.781086,65.8274924 206.120526,65.5444763 205.427733,65.1563342 C204.734941,64.7681921 204.017992,64.2021601 203.276865,63.458221 C202.600184,62.8113175 202.028236,62.1078205 201.561004,61.3477089 C201.093772,60.5875973 200.707103,59.8436694 200.400985,59.115903 C200.094868,58.3881365 199.861255,57.708898 199.700141,57.0781671 C199.539026,56.4474362 199.426248,55.9380073 199.361802,55.5498652 L198.63679,55.5498652 Z M228.70061,31.7762803 L228.70061,32.4555256 L233.147349,32.4555256 L233.147349,65.6415094 L228.70061,65.6415094 L228.70061,66.3207547 L259.58611,66.3207547 L259.58611,55.6954178 L258.957766,55.6954178 C258.635537,57.0862603 258.168312,58.3881341 257.556077,59.6010782 C256.943842,60.8140222 256.178559,61.8733108 255.260206,62.7789757 C254.341854,63.6846406 253.286569,64.3881377 252.094322,64.8894879 C250.902074,65.3908381 249.564844,65.6415094 248.08259,65.6415094 L240.155795,65.6415094 L240.155795,48.1266846 L243.394181,48.1266846 C244.521983,48.1266846 245.464489,48.3207528 246.221727,48.7088949 C246.978965,49.097037 247.615358,49.6226382 248.130924,50.2857143 C248.646491,50.9487904 249.057327,51.7169768 249.363444,52.5902965 C249.669562,53.4636162 249.935397,54.3692675 250.160957,55.3072776 L250.789301,55.3072776 L250.789301,40.2183288 L250.160957,40.2183288 C249.935397,41.3180648 249.645395,42.312664 249.290943,43.2021563 C248.936491,44.0916487 248.485377,44.8517489 247.937588,45.4824798 C247.389799,46.1132107 246.705072,46.5983811 245.883388,46.9380054 C245.061704,47.2776297 244.054753,47.4474394 242.862506,47.4474394 L240.155795,47.4474394 L240.155795,32.4555256 L247.84092,32.4555256 C249.419842,32.4555256 250.757073,32.754714 251.852651,33.3530997 C252.94823,33.9514855 253.842402,34.6549825 254.535195,35.4636119 C255.227987,36.2722412 255.767713,37.105117 256.154388,37.9622642 C256.541062,38.8194113 256.814953,39.5229083 256.976068,40.0727763 L257.604411,40.0727763 L257.604411,31.7762803 L228.70061,31.7762803 Z M275.343031,32.4555256 L275.343031,65.6415094 L270.896293,65.6415094 L270.896293,66.3207547 L286.798217,66.3207547 L286.798217,65.6415094 L282.351478,65.6415094 L282.351478,32.4555256 L284.091506,32.4555256 C285.283754,32.4555256 286.347094,32.5768182 287.281558,32.819407 C288.216022,33.0619958 289.053805,33.4824768 289.794932,34.0808625 C290.536059,34.6792483 291.196618,35.512124 291.776631,36.5795148 C292.356643,37.6469056 292.888313,39.0053826 293.371656,40.6549865 L294,40.6549865 L294,31.7762803 L263.69451,31.7762803 L263.69451,40.6549865 L264.322853,40.6549865 C264.806197,39.0053826 265.337867,37.6469056 265.917879,36.5795148 C266.497891,35.512124 267.158451,34.6792483 267.899578,34.0808625 C268.640704,33.4824768 269.478487,33.0619958 270.412952,32.819407 C271.347416,32.5768182 272.410756,32.4555256 273.603003,32.4555256 L275.343031,32.4555256 Z" id="path-2"></path>
        <filter x="-3.4%" y="-13.9%" width="106.8%" height="138.9%" filterUnits="objectBoundingBox" id="filter-3">
            <feOffset dx="0" dy="2" in="SourceAlpha" result="shadowOffsetOuter1"></feOffset>
            <feGaussianBlur stdDeviation="2" in="shadowOffsetOuter1" result="shadowBlurOuter1"></feGaussianBlur>
            <feColorMatrix values="0 0 0 0 0   0 0 0 0 0   0 0 0 0 0  0 0 0 0.5 0" type="matrix" in="shadowBlurOuter1"></feColorMatrix>
        </filter>
    </defs>
    <g id="로그인" stroke="none" stroke-width="1" fill="none" fill-rule="evenodd">
        <g id="로그인창" transform="translate(-203.000000, -230.000000)">
            <g id="Group" transform="translate(209.000000, 234.000000)">
                <g id="logo" filter="url(#filter-1)" stroke="#000000" stroke-width="3">
                    <path d="M82.704714,28.1129032 C148.046239,51.7189797 174.477441,67.1693574 161.99832,74.4640362 C143.279639,85.4060544 23.6184877,86.276274 3.4111082,74.4640362 C-10.0604781,66.5892109 16.3707238,51.1388333 82.704714,28.1129032 Z" id="Triangle"></path>
                    <polyline id="Path-2" points="68.4146341 11.3280798 81.1386023 0 96.5853659 11.3280798 81.1386023 20.5502316 81.1386023 29.4516129"></polyline>
                </g>
                <g id="closet">
                    <use fill="black" fill-opacity="1" filter="url(#filter-3)" xlink:href="#path-2"></use>
                    <use fill="#000000" fill-rule="evenodd" xlink:href="#path-2"></use>
                </g>
            </g>
        </g>
    </g>
</svg>