
<svg width="230px" height="74px" viewBox="0 0 230 74" version="1.1" xmlns="http://www.w3.org/2000/svg" xmlns:xlink="http://www.w3.org/1999/xlink">
    <!-- Generator: Sketch 47.1 (45422) - http://www.bohemiancoding.com/sketch -->
    <desc>Created with Sketch.</desc>
    <defs>
        <filter x="-7.3%" y="-11.3%" width="114.6%" height="129.0%" filterUnits="objectBoundingBox" id="filter-1">
            <feOffset dx="0" dy="2" in="SourceAlpha" result="shadowOffsetOuter1"></feOffset>
            <feGaussianBlur stdDeviation="2" in="shadowOffsetOuter1" result="shadowBlurOuter1"></feGaussianBlur>
            <feColorMatrix values="0 0 0 0 0   0 0 0 0 0   0 0 0 0 0  0 0 0 0.704342165 0" type="matrix" in="shadowBlurOuter1" result="shadowMatrixOuter1"></feColorMatrix>
            <feMerge>
                <feMergeNode in="shadowMatrixOuter1"></feMergeNode>
                <feMergeNode in="SourceGraphic"></feMergeNode>
            </feMerge>
        </filter>
        <path d="M87.652,30.712 L87.652,23.368 L87.076,23.368 C87.0039996,23.7040017 86.8840008,23.9139996 86.716,23.998 C86.5479992,24.0820004 86.2960017,24.124 85.96,24.124 C85.6479984,24.124 85.2640023,24.0520007 84.808,23.908 C84.3519977,23.7639993 83.8420028,23.6140008 83.278,23.458 C82.7139972,23.3019992 82.1020033,23.1520007 81.442,23.008 C80.7819967,22.8639993 80.0680038,22.792 79.3,22.792 C77.7639923,22.792 76.198008,23.1099968 74.602,23.746 C73.005992,24.3820032 71.5600065,25.2879941 70.264,26.464 C68.9679935,27.6400059 67.9060041,29.0559917 67.078,30.712 C66.2499959,32.3680083 65.836,34.2159898 65.836,36.256 C65.836,38.1280094 66.2079963,39.867992 66.952,41.476 C67.6960037,43.084008 68.6859938,44.4819941 69.922,45.67 C71.1580062,46.8580059 72.5919918,47.7939966 74.224,48.478 C75.8560082,49.1620034 77.5479912,49.504 79.3,49.504 C80.0680038,49.504 80.7999965,49.4380007 81.496,49.306 C82.1920035,49.1739993 82.8339971,49.0300008 83.422,48.874 C84.0100029,48.7179992 84.5319977,48.5740007 84.988,48.442 C85.4440023,48.3099993 85.8159986,48.244 86.104,48.244 C86.4400017,48.244 86.6919992,48.2979995 86.86,48.406 C87.0280008,48.5140005 87.1719994,48.7119986 87.292,49 L87.868,49 L87.868,41.368 L87.292,41.368 C87.0759989,42.3520049 86.7400023,43.2999954 86.284,44.212 C85.8279977,45.1240046 85.2640034,45.9339965 84.592,46.642 C83.9199966,47.3500035 83.1460044,47.9199978 82.27,48.352 C81.3939956,48.7840022 80.4160054,49 79.336,49 C77.9919933,49 76.8340049,48.8080019 75.862,48.424 C74.8899951,48.0399981 74.0980031,47.3680048 73.486,46.408 C72.8739969,45.4479952 72.4240014,44.1520082 72.136,42.52 C71.8479986,40.8879918 71.704,38.8240125 71.704,36.328 C71.704,34.4319905 71.7759993,32.686008 71.92,31.09 C72.0640007,29.493992 72.3939974,28.1200058 72.91,26.968 C73.4260026,25.8159942 74.187995,24.9160032 75.196,24.268 C76.204005,23.6199968 77.5839912,23.296 79.336,23.296 C80.6320065,23.296 81.7179956,23.5299977 82.594,23.998 C83.4700044,24.4660023 84.2019971,25.0659963 84.79,25.798 C85.3780029,26.5300037 85.8579981,27.3339956 86.23,28.21 C86.6020019,29.0860044 86.9199987,29.919996 87.184,30.712 L87.652,30.712 Z M91.648,23.368 L91.648,23.872 L94.96,23.872 L94.96,48.496 L91.648,48.496 L91.648,49 L114.472,49 L114.472,40.864 L114.004,40.864 C113.691998,42.256007 113.254003,43.4379951 112.69,44.41 C112.125997,45.3820049 111.490004,46.1739969 110.782,46.786 C110.073996,47.3980031 109.318004,47.8359987 108.514,48.1 C107.709996,48.3640013 106.912004,48.496 106.12,48.496 L100.18,48.496 L100.18,23.872 L103.492,23.872 L103.492,23.368 L91.648,23.368 Z M123.364,36.256 C123.364,38.7520125 123.507999,40.8219918 123.796,42.466 C124.084001,44.1100082 124.533997,45.4179951 125.146,46.39 C125.758003,47.3620049 126.549995,48.0399981 127.522,48.424 C128.494005,48.8080019 129.651993,49 130.996,49 C132.772009,49 134.163995,48.6700033 135.172,48.01 C136.180005,47.3499967 136.935997,46.4380058 137.44,45.274 C137.944003,44.1099942 138.261999,42.730008 138.394,41.134 C138.526001,39.537992 138.592,37.8040094 138.592,35.932 C138.592,34.2519916 138.538001,32.6500076 138.43,31.126 C138.321999,29.6019924 138.016003,28.2580058 137.512,27.094 C137.007997,25.9299942 136.246005,25.0060034 135.226,24.322 C134.205995,23.6379966 132.796009,23.296 130.996,23.296 C129.315992,23.296 127.972005,23.6139968 126.964,24.25 C125.955995,24.8860032 125.188003,25.7799942 124.66,26.932 C124.131997,28.0840058 123.784001,29.4519921 123.616,31.036 C123.447999,32.6200079 123.364,34.3599905 123.364,36.256 Z M117.496,36.256 C117.496,34.2159898 117.909996,32.3680083 118.738,30.712 C119.566004,29.0559917 120.627994,27.6400059 121.924,26.464 C123.220006,25.2879941 124.671992,24.3820032 126.28,23.746 C127.888008,23.1099968 129.459992,22.792 130.996,22.792 C132.652008,22.792 134.289992,23.1039969 135.91,23.728 C137.530008,24.3520031 138.969994,25.2399942 140.23,26.392 C141.490006,27.5440058 142.509996,28.9419918 143.29,30.586 C144.070004,32.2300082 144.46,34.0839897 144.46,36.148 C144.46,37.948009 144.094004,39.6579919 143.362,41.278 C142.629996,42.8980081 141.646006,44.3199939 140.41,45.544 C139.173994,46.7680061 137.746008,47.7339965 136.126,48.442 C134.505992,49.1500035 132.796009,49.504 130.996,49.504 C129.219991,49.504 127.516008,49.1620034 125.884,48.478 C124.251992,47.7939966 122.818006,46.8580059 121.582,45.67 C120.345994,44.4819941 119.356004,43.084008 118.612,41.476 C117.867996,39.867992 117.496,38.1280094 117.496,36.256 Z M148.24,41.008 L148.24,49 L148.816,49 C148.936001,48.6639983 149.067999,48.4420005 149.212,48.334 C149.356001,48.2259995 149.595998,48.172 149.932,48.172 C150.172001,48.172 150.537998,48.2439993 151.03,48.388 C151.522002,48.5320007 152.085997,48.6819992 152.722,48.838 C153.358003,48.9940008 154.041996,49.1439993 154.774,49.288 C155.506004,49.4320007 156.243996,49.504 156.988,49.504 C158.476007,49.504 159.825994,49.2700023 161.038,48.802 C162.250006,48.3339977 163.293996,47.704004 164.17,46.912 C165.046004,46.119996 165.723998,45.1960053 166.204,44.14 C166.684002,43.0839947 166.924,41.9680059 166.924,40.792 C166.924,39.591994 166.702002,38.5840041 166.258,37.768 C165.813998,36.9519959 165.232004,36.2560029 164.512,35.68 C163.791996,35.1039971 162.970005,34.6300019 162.046,34.258 C161.121995,33.8859981 160.174005,33.5440016 159.202,33.232 C158.229995,32.9199984 157.282005,32.6200014 156.358,32.332 C155.433995,32.0439986 154.612004,31.702002 153.892,31.306 C153.171996,30.909998 152.590002,30.4360028 152.146,29.884 C151.701998,29.3319972 151.48,28.6360042 151.48,27.796 C151.48,27.2439972 151.611999,26.7040026 151.876,26.176 C152.140001,25.6479974 152.523997,25.1680022 153.028,24.736 C153.532003,24.3039978 154.149996,23.9560013 154.882,23.692 C155.614004,23.4279987 156.459995,23.296 157.42,23.296 C158.596006,23.296 159.567996,23.499998 160.336,23.908 C161.104004,24.316002 161.739997,24.8499967 162.244,25.51 C162.748003,26.1700033 163.161998,26.9079959 163.486,27.724 C163.810002,28.5400041 164.115999,29.3679958 164.404,30.208 L164.872,30.208 L164.872,23.368 L164.296,23.368 C164.175999,23.6560014 164.062001,23.8539995 163.954,23.962 C163.845999,24.0700005 163.624002,24.124 163.288,24.124 C162.999999,24.124 162.682002,24.0520007 162.334,23.908 C161.985998,23.7639993 161.584002,23.6140008 161.128,23.458 C160.671998,23.3019992 160.144003,23.1520007 159.544,23.008 C158.943997,22.8639993 158.248004,22.792 157.456,22.792 C156.207994,22.792 155.050005,23.0019979 153.982,23.422 C152.913995,23.8420021 151.996004,24.3939966 151.228,25.078 C150.459996,25.7620034 149.860002,26.5479956 149.428,27.436 C148.995998,28.3240044 148.78,29.2479952 148.78,30.208 C148.78,31.5040065 148.989998,32.5839957 149.41,33.448 C149.830002,34.3120043 150.387997,35.0379971 151.084,35.626 C151.780003,36.2140029 152.571996,36.6939981 153.46,37.066 C154.348004,37.4380019 155.259995,37.7619986 156.196,38.038 C157.132005,38.3140014 158.043996,38.5839987 158.932,38.848 C159.820004,39.1120013 160.611997,39.4359981 161.308,39.82 C162.004003,40.2040019 162.561998,40.6839971 162.982,41.26 C163.402002,41.8360029 163.612,42.5679956 163.612,43.456 C163.612,43.9360024 163.516001,44.4939968 163.324,45.13 C163.131999,45.7660032 162.802002,46.3719971 162.334,46.948 C161.865998,47.5240029 161.224004,48.009998 160.408,48.406 C159.591996,48.802002 158.548006,49 157.276,49 C156.915998,49 156.526002,48.9940001 156.106,48.982 C155.685998,48.9699999 155.242002,48.8980007 154.774,48.766 C154.305998,48.6339993 153.814003,48.4240014 153.298,48.136 C152.781997,47.8479986 152.248003,47.4280028 151.696,46.876 C151.191997,46.3959976 150.766002,45.8740028 150.418,45.31 C150.069998,44.7459972 149.782001,44.1940027 149.554,43.654 C149.325999,43.1139973 149.152001,42.6100023 149.032,42.142 C148.911999,41.6739977 148.828,41.2960014 148.78,41.008 L148.24,41.008 Z M170.632,23.368 L170.632,23.872 L173.944,23.872 L173.944,48.496 L170.632,48.496 L170.632,49 L193.636,49 L193.636,41.116 L193.168,41.116 C192.927999,42.1480052 192.580002,43.1139955 192.124,44.014 C191.667998,44.9140045 191.098003,45.6999966 190.414,46.372 C189.729997,47.0440034 188.944004,47.5659981 188.056,47.938 C187.167996,48.3100019 186.172006,48.496 185.068,48.496 L179.164,48.496 L179.164,35.5 L181.576,35.5 C182.416004,35.5 183.117997,35.6439986 183.682,35.932 C184.246003,36.2200014 184.719998,36.6099975 185.104,37.102 C185.488002,37.5940025 185.793999,38.1639968 186.022,38.812 C186.250001,39.4600032 186.447999,40.1319965 186.616,40.828 L187.084,40.828 L187.084,29.632 L186.616,29.632 C186.447999,30.4480041 186.232001,31.1859967 185.968,31.846 C185.703999,32.5060033 185.368002,33.0699977 184.96,33.538 C184.551998,34.0060023 184.042003,34.3659987 183.43,34.618 C182.817997,34.8700013 182.068004,34.996 181.18,34.996 L179.164,34.996 L179.164,23.872 L184.888,23.872 C186.064006,23.872 187.059996,24.0939978 187.876,24.538 C188.692004,24.9820022 189.357997,25.503997 189.874,26.104 C190.390003,26.704003 190.791999,27.3219968 191.08,27.958 C191.368001,28.5940032 191.571999,29.115998 191.692,29.524 L192.16,29.524 L192.16,23.368 L170.632,23.368 Z M205.372,23.872 L205.372,48.496 L202.06,48.496 L202.06,49 L213.904,49 L213.904,48.496 L210.592,48.496 L210.592,23.872 L211.888,23.872 C212.776004,23.872 213.567997,23.9619991 214.264,24.142 C214.960003,24.3220009 215.583997,24.6339978 216.136,25.078 C216.688003,25.5220022 217.179998,26.139996 217.612,26.932 C218.044002,27.724004 218.439998,28.7319939 218.8,29.956 L219.268,29.956 L219.268,23.368 L196.696,23.368 L196.696,29.956 L197.164,29.956 C197.524002,28.7319939 197.919998,27.724004 198.352,26.932 C198.784002,26.139996 199.275997,25.5220022 199.828,25.078 C200.380003,24.6339978 201.003997,24.3220009 201.7,24.142 C202.396003,23.9619991 203.187996,23.872 204.076,23.872 L205.372,23.872 Z" id="path-2"></path>
        <filter x="-4.6%" y="-18.7%" width="109.1%" height="152.4%" filterUnits="objectBoundingBox" id="filter-3">
            <feOffset dx="0" dy="2" in="SourceAlpha" result="shadowOffsetOuter1"></feOffset>
            <feGaussianBlur stdDeviation="2" in="shadowOffsetOuter1" result="shadowBlurOuter1"></feGaussianBlur>
            <feColorMatrix values="0 0 0 0 0   0 0 0 0 0   0 0 0 0 0  0 0 0 0.5 0" type="matrix" in="shadowBlurOuter1"></feColorMatrix>
        </filter>
    </defs>
    <g id="로그인" stroke="none" stroke-width="1" fill="none" fill-rule="evenodd">
        <g id="로그인창" transform="translate(-253.000000, -110.000000)">
            <g id="Group" transform="translate(259.000000, 114.000000)">
                <g id="logo" filter="url(#filter-1)" stroke="#979797" stroke-width="3">
                    <path d="M61.652605,21 C110.361742,38.6334547 130.065001,50.1747007 120.762384,55.6237379 C106.808458,63.7972936 17.606509,64.4473372 2.54282611,55.6237379 C-7.49962913,49.7413383 12.2036305,38.2000923 61.652605,21 Z" id="Triangle"></path>
                    <polyline id="Path-2" points="51 8.46193915 60.4851399 0 72 8.46193915 60.4851399 15.3507754 60.4851399 22"></polyline>
                </g>
                <g id="closet">
                    <use fill="black" fill-opacity="1" filter="url(#filter-3)" xlink:href="#path-2"></use>
                    <use fill="#000000" fill-rule="evenodd" xlink:href="#path-2"></use>
                </g>
            </g>
        </g>
    </g>
</svg>