
<svg width="182px" height="215px" viewBox="0 0 182 215" version="1.1" xmlns="http://www.w3.org/2000/svg" xmlns:xlink="http://www.w3.org/1999/xlink">
    <!-- Generator: Sketch 48.2 (47327) - http://www.bohemiancoding.com/sketch -->
    <desc>Created with Sketch.</desc>
    <defs>
        <path d="M28.938483,54.5662526 L4.93336093,81.2006232 L24.2887003,103.612184 L43.518005,81.2006232 L43.518005,153.22902 L130.040873,153.22902 L130.040873,81.2006232 L151.403767,103.897636 L169.426738,81.2006232 L142.585834,54.5662526 L112.148438,40.2322902 C112.148438,49.7882652 103.825642,54.5662526 87.1800497,54.5662526 C70.5344578,54.5662526 60.7532595,49.7882652 57.8364549,40.2322902 L28.938483,54.5662526 Z" id="path-1"></path>
        <filter x="-3.3%" y="-2.2%" width="110.3%" height="115.0%" filterUnits="objectBoundingBox" id="filter-2">
            <feGaussianBlur stdDeviation="0" in="SourceGraphic"></feGaussianBlur>
        </filter>
        <filter x="-7.6%" y="-8.4%" width="118.8%" height="127.4%" filterUnits="objectBoundingBox" id="filter-3">
            <feMorphology radius="1" operator="dilate" in="SourceAlpha" result="shadowSpreadOuter1"></feMorphology>
            <feOffset dx="3" dy="6" in="shadowSpreadOuter1" result="shadowOffsetOuter1"></feOffset>
            <feGaussianBlur stdDeviation="3.5" in="shadowOffsetOuter1" result="shadowBlurOuter1"></feGaussianBlur>
            <feComposite in="shadowBlurOuter1" in2="SourceAlpha" operator="out" result="shadowBlurOuter1"></feComposite>
            <feColorMatrix values="0 0 0 0 0   0 0 0 0 0   0 0 0 0 0  0 0 0 0.5 0" type="matrix" in="shadowBlurOuter1"></feColorMatrix>
        </filter>
        <path d="M60.9019608,91.5579515 L60.9019608,88.2587601 L60.6405229,88.2587601 C60.607843,88.4097043 60.5533773,88.5040429 60.4771242,88.541779 C60.4008711,88.579515 60.2864931,88.5983827 60.1339869,88.5983827 C59.992374,88.5983827 59.8180838,88.5660381 59.6111111,88.5013477 C59.4041384,88.4366574 59.1726592,88.3692726 58.9166667,88.2991914 C58.6606741,88.2291102 58.3828991,88.1617254 58.0833333,88.097035 C57.7837676,88.0323447 57.4596967,88 57.1111111,88 C56.4139399,88 55.7031627,88.1428557 54.9787582,88.4285714 C54.2543537,88.7142871 53.5980422,89.1212912 53.0098039,89.6495957 C52.4215657,90.1779002 51.9395444,90.8140125 51.5637255,91.5579515 C51.1879066,92.3018905 51,93.1320709 51,94.0485175 C51,94.8894921 51.1688436,95.6711554 51.5065359,96.393531 C51.8442283,97.1159066 52.2935702,97.7439326 52.8545752,98.277628 C53.4155801,98.8113234 54.0664451,99.2318044 54.8071895,99.5390836 C55.547934,99.8463627 56.3159002,100 57.1111111,100 C57.4596967,100 57.7919374,99.9703507 58.1078431,99.9110512 C58.4237489,99.8517517 58.7151403,99.7870623 58.9820261,99.7169811 C59.248912,99.6468999 59.4858377,99.5822105 59.6928105,99.5229111 C59.8997832,99.4636116 60.0686268,99.4339623 60.1993464,99.4339623 C60.3518526,99.4339623 60.4662306,99.4582208 60.5424837,99.5067385 C60.6187368,99.5552563 60.6840956,99.6442042 60.7385621,99.7735849 L61,99.7735849 L61,96.3450135 L60.7385621,96.3450135 C60.6405224,96.7870642 60.4880185,97.212936 60.2810458,97.6226415 C60.074073,98.0323471 59.8180843,98.3962248 59.5130719,98.7142857 C59.2080595,99.0323466 58.8567558,99.2884087 58.4591503,99.4824798 C58.0615449,99.6765508 57.6176495,99.7735849 57.127451,99.7735849 C56.5174261,99.7735849 55.9918323,99.6873324 55.5506536,99.5148248 C55.1094749,99.3423172 54.7500014,99.0404334 54.4722222,98.6091644 C54.1944431,98.1778954 53.9901967,97.595691 53.8594771,96.8625337 C53.7287575,96.1293764 53.6633987,95.2021619 53.6633987,94.0808625 C53.6633987,93.2291063 53.6960781,92.4447475 53.7614379,91.7277628 C53.8267977,91.0107781 53.9765783,90.3935336 54.2107843,89.8760108 C54.4449903,89.358488 54.7908474,88.9541794 55.248366,88.6630728 C55.7058846,88.3719662 56.33224,88.2264151 57.127451,88.2264151 C57.7156892,88.2264151 58.2086037,88.3315353 58.6062092,88.541779 C59.0038146,88.7520226 59.3360553,89.0215617 59.6029412,89.3504043 C59.869827,89.6792469 60.0876898,90.0404293 60.2565359,90.4339623 C60.4253821,90.8274952 60.5697162,91.2021546 60.6895425,91.5579515 L60.9019608,91.5579515 Z M62,88 L62,88.2162921 L63.5962145,88.2162921 L63.5962145,98.7837079 L62,98.7837079 L62,99 L73,99 L73,95.508427 L72.7744479,95.508427 C72.6240792,96.1058082 72.4129877,96.6130597 72.1411672,97.0301966 C71.8693467,97.4473335 71.5628303,97.7872178 71.2216088,98.0498596 C70.8803874,98.3125013 70.5160377,98.5004676 70.1285489,98.613764 C69.7410601,98.7270605 69.3564688,98.7837079 68.9747634,98.7837079 L66.1119874,98.7837079 L66.1119874,88.2162921 L67.7082019,88.2162921 L67.7082019,88 L62,88 Z M77,93.5462185 C77,94.6143844 77.0661932,95.5002299 77.1985816,96.2037815 C77.3309699,96.9073331 77.5378237,97.4670848 77.8191489,97.8830532 C78.1004742,98.2990217 78.4645368,98.5891682 78.9113475,98.7535014 C79.3581583,98.9178346 79.8904618,99 80.5082742,99 C81.3246692,99 81.9645367,98.8587783 82.427896,98.5763305 C82.8912553,98.2938828 83.2387695,97.9035973 83.4704492,97.4054622 C83.7021288,96.9073271 83.8483054,96.3167635 83.9089835,95.6337535 C83.9696615,94.9507436 84,94.2086875 84,93.407563 C84,92.6886052 83.9751776,92.0030378 83.9255319,91.3508403 C83.8758863,90.6986429 83.7352257,90.1234852 83.5035461,89.6253501 C83.2718665,89.1272151 82.9215941,88.7317942 82.4527187,88.4390756 C81.9838432,88.1463571 81.3357015,88 80.5082742,88 C79.7360087,88 79.1182056,88.1360864 78.6548463,88.4082633 C78.191487,88.6804402 77.8384567,89.0630227 77.5957447,89.5560224 C77.3530327,90.0490221 77.1930658,90.6344504 77.1158392,91.3123249 C77.0386127,91.9901995 77,92.7348232 77,93.5462185 Z M74,94.0485175 C74,93.1320709 74.1842438,92.3018905 74.552737,91.5579515 C74.9212301,90.8140125 75.3938556,90.1779002 75.9706275,89.6495957 C76.5473994,89.1212912 77.1935879,88.7142871 77.9092123,88.4285714 C78.6248367,88.1428557 79.3244292,88 80.0080107,88 C80.744997,88 81.4739617,88.1401603 82.1949266,88.4204852 C82.9158915,88.70081 83.5567395,89.0997279 84.11749,89.6172507 C84.6782405,90.1347735 85.1321745,90.7627995 85.4793057,91.5013477 C85.826437,92.2398959 86,93.0727716 86,94 C86,94.8086294 85.8371178,95.5768158 85.5113485,96.3045822 C85.1855791,97.0323487 84.7476663,97.6711563 84.1975968,98.2210243 C83.6475273,98.7708922 83.0120196,99.2048502 82.2910547,99.5229111 C81.5700899,99.8409719 80.8090828,100 80.0080107,100 C79.2176195,100 78.4592827,99.8463627 77.7329773,99.5390836 C77.0066719,99.2318044 76.3684941,98.8113234 75.8184246,98.277628 C75.2683551,97.7439326 74.827772,97.1159066 74.4966622,96.393531 C74.1655524,95.6711554 74,94.8894921 74,94.0485175 Z M88,96.1832884 L88,99.7735849 L88.2466281,99.7735849 C88.2980092,99.6226408 88.3545276,99.5229113 88.416185,99.4743935 C88.4778423,99.4258758 88.580603,99.4016173 88.7244701,99.4016173 C88.8272324,99.4016173 88.9839424,99.4339619 89.194605,99.4986523 C89.4052676,99.5633426 89.6467552,99.6307274 89.9190751,99.7008086 C90.1913951,99.7708898 90.484263,99.8382746 90.7976879,99.902965 C91.1111127,99.9676553 91.4271018,100 91.7456647,100 C92.3827906,100 92.9608195,99.8948798 93.4797688,99.6846361 C93.9987181,99.4743925 94.4457271,99.1913764 94.8208092,98.8355795 C95.1958914,98.4797826 95.4861904,98.0646924 95.6917148,97.5902965 C95.8972393,97.1159006 96,96.6145579 96,96.0862534 C96,95.5471671 95.9049464,95.0943415 95.7148362,94.7277628 C95.5247261,94.3611842 95.2755314,94.0485188 94.9672447,93.7897574 C94.658958,93.530996 94.3070026,93.3180601 93.911368,93.1509434 C93.5157334,92.9838267 93.1098287,92.8301894 92.6936416,92.690027 C92.2774546,92.5498645 91.8715498,92.415095 91.4759152,92.2857143 C91.0802806,92.1563336 90.7283252,92.0026963 90.4200385,91.8247978 C90.1117518,91.6468994 89.8625571,91.4339635 89.672447,91.1859838 C89.4823369,90.9380042 89.3872832,90.6253388 89.3872832,90.2479784 C89.3872832,89.9999988 89.4438016,89.7574136 89.5568401,89.5202156 C89.6698785,89.2830177 89.8342956,89.0673864 90.0500963,88.8733154 C90.265897,88.6792443 90.5305058,88.5229116 90.8439306,88.4043127 C91.1573555,88.2857137 91.5195869,88.2264151 91.9306358,88.2264151 C92.4341708,88.2264151 92.8503516,88.3180584 93.1791908,88.5013477 C93.5080299,88.684637 93.7803457,88.9245268 93.9961464,89.2210243 C94.2119471,89.5175217 94.3892093,89.8490548 94.5279383,90.2156334 C94.6666674,90.5822121 94.7976872,90.954176 94.9210019,91.3315364 L95.1213873,91.3315364 L95.1213873,88.2587601 L94.8747592,88.2587601 C94.823378,88.3881408 94.7745667,88.4770887 94.7283237,88.5256065 C94.6820807,88.5741242 94.5870271,88.5983827 94.4431599,88.5983827 C94.3198452,88.5983827 94.1836873,88.5660381 94.0346821,88.5013477 C93.8856768,88.4366574 93.7135527,88.3692726 93.5183044,88.2991914 C93.3230562,88.2291102 93.0969827,88.1617254 92.8400771,88.097035 C92.5831715,88.0323447 92.2851655,88 91.9460501,88 C91.4116865,88 90.9158661,88.0943387 90.4585742,88.2830189 C90.0012822,88.4716991 89.6082226,88.719675 89.2793834,89.0269542 C88.9505443,89.3342333 88.6936425,89.6873295 88.5086705,90.0862534 C88.3236985,90.4851772 88.2312139,90.9002674 88.2312139,91.3315364 C88.2312139,91.9137495 88.3211295,92.3989199 88.5009634,92.787062 C88.6807973,93.1752041 88.9197159,93.5013464 89.2177264,93.7654987 C89.5157369,94.0296509 89.8548472,94.2452822 90.2350674,94.4123989 C90.6152877,94.5795157 91.0057783,94.7250668 91.4065511,94.8490566 C91.8073238,94.9730464 92.1978144,95.094339 92.5780347,95.212938 C92.958255,95.331537 93.2973652,95.4770881 93.5953757,95.6495957 C93.8933862,95.8221033 94.1323048,96.0377346 94.3121387,96.296496 C94.4919726,96.5552574 94.5818882,96.884095 94.5818882,97.2830189 C94.5818882,97.4986534 94.540784,97.7493247 94.4585742,98.0350404 C94.3763644,98.3207561 94.2350684,98.5929906 94.0346821,98.851752 C93.8342957,99.1105134 93.5594109,99.3288401 93.2100193,99.5067385 C92.8606277,99.684637 92.4136187,99.7735849 91.8689788,99.7735849 C91.7148355,99.7735849 91.5478493,99.7708895 91.3680154,99.7654987 C91.1881815,99.7601078 90.9980742,99.7277631 90.7976879,99.6684636 C90.5973015,99.6091641 90.3866421,99.5148254 90.1657033,99.3854447 C89.9447645,99.256064 89.7161219,99.0673867 89.4797688,98.819407 C89.2639681,98.6037725 89.0815679,98.3692735 88.9325626,98.115903 C88.7835574,97.8625324 88.6602445,97.6145565 88.5626204,97.3719677 C88.4649963,97.1293788 88.3904948,96.902966 88.3391137,96.6927224 C88.2877326,96.4824787 88.2517663,96.3126691 88.2312139,96.1832884 L88,96.1832884 Z M98,88 L98,88.2162921 L99.5837246,88.2162921 L99.5837246,98.7837079 L98,98.7837079 L98,99 L109,99 L109,95.616573 L108.776213,95.616573 C108.66145,96.0594591 108.495045,96.4740149 108.276995,96.8602528 C108.058945,97.2464907 107.786387,97.5838001 107.459311,97.872191 C107.132236,98.160582 106.756392,98.3845966 106.331768,98.5442416 C105.907144,98.7038866 105.430884,98.7837079 104.902973,98.7837079 L102.079812,98.7837079 L102.079812,93.2064607 L103.233177,93.2064607 C103.634848,93.2064607 103.970526,93.2682578 104.240219,93.3918539 C104.509913,93.5154501 104.736567,93.6828173 104.920188,93.8939607 C105.103809,94.1051041 105.25013,94.3497177 105.359155,94.627809 C105.46818,94.9059003 105.562858,95.1942869 105.643192,95.4929775 L105.86698,95.4929775 L105.86698,90.6882022 L105.643192,90.6882022 C105.562858,91.0383913 105.459573,91.3551016 105.333333,91.6383427 C105.207094,91.9215838 105.046428,92.1636226 104.85133,92.3644663 C104.656233,92.56531 104.412365,92.7198028 104.119718,92.8279494 C103.827072,92.936096 103.468442,92.9901685 103.043818,92.9901685 L102.079812,92.9901685 L102.079812,88.2162921 L104.816901,88.2162921 C105.379241,88.2162921 105.855501,88.3115627 106.245696,88.5021067 C106.635891,88.6926508 106.954355,88.9166654 107.201095,89.1741573 C107.447836,89.4316492 107.640062,89.6968619 107.777778,89.9698034 C107.915494,90.2427448 108.013041,90.4667594 108.070423,90.6418539 L108.29421,90.6418539 L108.29421,88 L98,88 Z M113.8437,88.2162921 L113.8437,98.7837079 L112.376396,98.7837079 L112.376396,99 L117.623604,99 L117.623604,98.7837079 L116.1563,98.7837079 L116.1563,88.2162921 L116.730463,88.2162921 C117.123872,88.2162921 117.474746,88.2549153 117.783094,88.3321629 C118.091442,88.4094105 118.367888,88.5433043 118.61244,88.7338483 C118.856992,88.9243923 119.074959,89.189605 119.266348,89.5294944 C119.457736,89.8693837 119.633173,90.3019637 119.792663,90.8272472 L120,90.8272472 L120,88 L110,88 L110,90.8272472 L110.207337,90.8272472 C110.366827,90.3019637 110.542264,89.8693837 110.733652,89.5294944 C110.925041,89.189605 111.143008,88.9243923 111.38756,88.7338483 C111.632112,88.5433043 111.908558,88.4094105 112.216906,88.3321629 C112.525254,88.2549153 112.876128,88.2162921 113.269537,88.2162921 L113.8437,88.2162921 Z" id="path-4"></path>
        <filter x="-10.1%" y="-41.7%" width="120.3%" height="216.7%" filterUnits="objectBoundingBox" id="filter-5">
            <feOffset dx="0" dy="2" in="SourceAlpha" result="shadowOffsetOuter1"></feOffset>
            <feGaussianBlur stdDeviation="2" in="shadowOffsetOuter1" result="shadowBlurOuter1"></feGaussianBlur>
            <feColorMatrix values="0 0 0 0 0   0 0 0 0 0   0 0 0 0 0  0 0 0 0.5 0" type="matrix" in="shadowBlurOuter1"></feColorMatrix>
        </filter>
    </defs>
    <g id="로그인" stroke="none" stroke-width="1" fill="none" fill-rule="evenodd">
        <g id="내-옷장-만보기" transform="translate(-886.000000, -157.000000)">
            <g id="티셔츠-사진들" transform="translate(199.000000, 153.000000)">
                <g id="-티-사진" transform="translate(688.000000, 4.000000)">
                    <rect id="Rectangle-8" fill="#4A4A4A" x="0" y="0" width="174" height="215"></rect>
                    <g id="Path-3" filter="url(#filter-2)">
                        <use fill="black" fill-opacity="1" filter="url(#filter-3)" xlink:href="#path-1"></use>
                        <use stroke="#979797" stroke-width="1" fill="#FFFFFF" fill-rule="evenodd" xlink:href="#path-1"></use>
                    </g>
                    <g id="closet">
                        <use fill="black" fill-opacity="1" filter="url(#filter-5)" xlink:href="#path-4"></use>
                        <use fill="#000000" fill-rule="evenodd" xlink:href="#path-4"></use>
                    </g>
                </g>
            </g>
        </g>
    </g>
</svg>