
<svg width="243px" height="51px" viewBox="0 0 243 51" version="1.1" xmlns="http://www.w3.org/2000/svg" xmlns:xlink="http://www.w3.org/1999/xlink">
    <!-- Generator: Sketch 47.1 (45422) - http://www.bohemiancoding.com/sketch -->
    <desc>Created with Sketch.</desc>
    <defs>
        <filter x="-11.7%" y="-17.9%" width="123.4%" height="146.2%" filterUnits="objectBoundingBox" id="filter-1">
            <feOffset dx="0" dy="2" in="SourceAlpha" result="shadowOffsetOuter1"></feOffset>
            <feGaussianBlur stdDeviation="2" in="shadowOffsetOuter1" result="shadowBlurOuter1"></feGaussianBlur>
            <feColorMatrix values="0 0 0 0 0   0 0 0 0 0   0 0 0 0 0  0 0 0 0.704342165 0" type="matrix" in="shadowBlurOuter1" result="shadowMatrixOuter1"></feColorMatrix>
            <feMerge>
                <feMergeNode in="shadowMatrixOuter1"></feMergeNode>
                <feMergeNode in="SourceGraphic"></feMergeNode>
            </feMerge>
        </filter>
        <path d="M117.954243,14.8810782 L117.954243,8.50044205 L117.453801,8.50044205 C117.391245,8.79236804 117.286987,8.97481904 117.141024,9.04780054 C116.995061,9.12078204 116.77612,9.15727224 116.484194,9.15727224 C116.21312,9.15727224 115.879495,9.09471761 115.48331,8.96960647 C115.087125,8.84449533 114.644029,8.71417318 114.154011,8.57863612 C113.663992,8.44309905 113.132278,8.31277691 112.558852,8.18766577 C111.985426,8.06255463 111.365092,8 110.697833,8 C109.363314,8 108.002751,8.27628295 106.616102,8.82885714 C105.229454,9.38143133 103.973148,10.1685771 102.847148,11.1903181 C101.721148,12.212059 100.798467,13.4423001 100.079078,14.8810782 C99.3596891,16.3198563 99,17.9254251 99,19.6978329 C99,21.3242777 99.3231989,22.8360146 99.9696065,24.2330889 C100.616014,25.6301633 101.47614,26.8447657 102.550011,27.8769326 C103.623881,28.9090995 104.869761,29.7223097 106.287687,30.3165876 C107.705614,30.9108655 109.175647,31.208 110.697833,31.208 C111.365092,31.208 112.001064,31.1506583 112.605768,31.035973 C113.210472,30.9212878 113.768251,30.7961786 114.279121,30.6606415 C114.789992,30.5251044 115.243513,30.3999952 115.639698,30.28531 C116.035883,30.1706248 116.359082,30.113283 116.609305,30.113283 C116.901231,30.113283 117.120172,30.160199 117.266135,30.2540323 C117.412098,30.3478657 117.537207,30.5198909 117.641466,30.7701132 L118.141908,30.7701132 L118.141908,24.1392561 L117.641466,24.1392561 C117.4538,24.9941822 117.161878,25.8178181 116.765693,26.6101887 C116.369507,27.4025592 115.879496,28.1062988 115.295644,28.7214286 C114.711792,29.3365583 114.03933,29.8317825 113.278237,30.2071159 C112.517144,30.5824493 111.667444,30.7701132 110.729111,30.7701132 C109.561407,30.7701132 108.55532,30.6033009 107.710819,30.2696712 C106.866319,29.9360415 106.178218,29.3521982 105.646496,28.518124 C105.114774,27.6840497 104.723807,26.5580664 104.473585,25.1401402 C104.223363,23.7222139 104.098253,21.9289812 104.098253,19.7603881 C104.098253,18.1130915 104.160808,16.5961417 104.285919,15.2094933 C104.41103,13.8228448 104.697739,12.629094 105.146054,11.6282049 C105.594369,10.6273158 106.256405,9.84538287 107.132183,9.28238275 C108.007961,8.71938263 109.206925,8.43788679 110.729111,8.43788679 C111.855111,8.43788679 112.798643,8.64118934 113.559736,9.04780054 C114.320829,9.45441174 114.956801,9.97570032 115.467671,10.6116819 C115.978542,11.2476636 116.395573,11.9461903 116.718776,12.707283 C117.04198,13.4683758 117.318263,14.1929669 117.547633,14.8810782 L117.954243,14.8810782 Z M121.426059,8.50044205 L121.426059,8.93832884 L124.303601,8.93832884 L124.303601,30.3322264 L121.426059,30.3322264 L121.426059,30.7701132 L141.256075,30.7701132 L141.256075,23.7013693 L140.849466,23.7013693 C140.578392,24.9107769 140.197852,25.9377155 139.707833,26.7822156 C139.217814,27.6267158 138.665248,28.3148167 138.050119,28.8465391 C137.434989,29.3782614 136.778165,29.7588021 136.079628,29.9881725 C135.381091,30.2175429 134.687777,30.3322264 133.999666,30.3322264 L128.838857,30.3322264 L128.838857,8.93832884 L131.716399,8.93832884 L131.716399,8.50044205 L121.426059,8.50044205 Z M148.98165,19.6978329 C148.98165,21.8664259 149.106759,23.6648716 149.356981,25.0932237 C149.607203,26.5215759 149.99817,27.657985 150.529892,28.5024852 C151.061615,29.3469854 151.749715,29.9360415 152.594216,30.2696712 C153.438716,30.6033009 154.444803,30.7701132 155.612507,30.7701132 C157.155544,30.7701132 158.364934,30.4834045 159.240712,29.9099784 C160.11649,29.3365524 160.773313,28.5441937 161.211202,27.5328787 C161.649091,26.5215637 161.925374,25.3225999 162.040059,23.9359515 C162.154745,22.549303 162.212086,21.042779 162.212086,19.4163342 C162.212086,17.9567043 162.16517,16.5648638 162.071337,15.2407709 C161.977504,13.916678 161.711646,12.7489916 161.273757,11.7376765 C160.835868,10.7263615 160.173832,9.9235771 159.287628,9.32929919 C158.401424,8.73502129 157.176396,8.43788679 155.612507,8.43788679 C154.152877,8.43788679 152.98519,8.71416974 152.109412,9.26674394 C151.233634,9.81931813 150.566385,10.5960381 150.107644,11.5969272 C149.648903,12.5978163 149.346556,13.7863543 149.200593,15.1625768 C149.05463,16.5387993 148.98165,18.0505362 148.98165,19.6978329 Z M143.883396,19.6978329 C143.883396,17.9254251 144.243085,16.3198563 144.962474,14.8810782 C145.681863,13.4423001 146.604544,12.212059 147.730544,11.1903181 C148.856545,10.1685771 150.118063,9.38143133 151.515137,8.82885714 C152.912212,8.27628295 154.277988,8 155.612507,8 C157.051285,8 158.474403,8.27107007 159.881903,8.81321833 C161.289403,9.35536659 162.540496,10.1268737 163.635218,11.1277628 C164.729941,12.1286519 165.616131,13.3432543 166.293817,14.7716065 C166.971502,16.1999586 167.31034,17.8107404 167.31034,19.604 C167.31034,21.1678892 166.992354,22.6535617 166.356372,24.061062 C165.72039,25.4685623 164.865477,26.7040162 163.791606,27.7674609 C162.717736,28.8309056 161.477069,29.6701802 160.069569,30.28531 C158.662068,30.9004397 157.176396,31.208 155.612507,31.208 C154.069469,31.208 152.58901,30.9108655 151.171084,30.3165876 C149.753157,29.7223097 148.507278,28.9090995 147.433407,27.8769326 C146.359536,26.8447657 145.49941,25.6301633 144.853003,24.2330889 C144.206595,22.8360146 143.883396,21.3242777 143.883396,19.6978329 Z M170.594491,23.8264798 L170.594491,30.7701132 L171.094933,30.7701132 C171.199192,30.4781872 171.313875,30.2853104 171.438987,30.1914771 C171.564098,30.0976437 171.772613,30.0507278 172.064539,30.0507278 C172.273058,30.0507278 172.591044,30.1132824 173.018507,30.2383935 C173.44597,30.3635047 173.935981,30.4938268 174.488555,30.6293639 C175.041129,30.7649009 175.635398,30.8952231 176.27138,31.0203342 C176.907362,31.1454454 177.548547,31.208 178.194954,31.208 C179.487769,31.208 180.660669,31.0046975 181.713687,30.5980863 C182.766706,30.1914751 183.673748,29.644122 184.434841,28.9560108 C185.195934,28.2678995 185.78499,27.4651151 186.202027,26.5476334 C186.619064,25.6301517 186.82758,24.660555 186.82758,23.638814 C186.82758,22.5962212 186.634703,21.7204564 186.248943,21.0114933 C185.863184,20.3025301 185.357534,19.6978354 184.731978,19.1973908 C184.106423,18.6969463 183.392257,18.2851283 182.589461,17.9619245 C181.786664,17.6387208 180.963028,17.3415863 180.118528,17.0705121 C179.274028,16.799438 178.450392,16.5387937 177.647596,16.2885714 C176.844799,16.0383492 176.130634,15.7412147 175.505078,15.397159 C174.879522,15.0531034 174.373873,14.6412854 173.988113,14.1616927 C173.602354,13.6821 173.409477,13.0774053 173.409477,12.3475903 C173.409477,11.8679976 173.524161,11.3988379 173.753531,10.940097 C173.982901,10.4813562 174.316526,10.0643253 174.754415,9.68899191 C175.192304,9.3136585 175.729231,9.01131112 176.365213,8.7819407 C177.001195,8.55257028 177.736211,8.43788679 178.570286,8.43788679 C179.592027,8.43788679 180.436514,8.61512491 181.103774,8.96960647 C181.771033,9.32408803 182.323599,9.78803487 182.761488,10.3614609 C183.199377,10.934887 183.559066,11.5760719 183.840566,12.285035 C184.122066,12.9939982 184.387923,13.7133764 184.638146,14.4431914 L185.044755,14.4431914 L185.044755,8.50044205 L184.544313,8.50044205 C184.440053,8.75066432 184.341009,8.92268956 184.247175,9.01652291 C184.153342,9.11035626 183.960465,9.15727224 183.668539,9.15727224 C183.418317,9.15727224 183.142034,9.09471761 182.839682,8.96960647 C182.53733,8.84449533 182.188067,8.71417318 181.791881,8.57863612 C181.395696,8.44309905 180.936962,8.31277691 180.415666,8.18766577 C179.894369,8.06255463 179.289675,8 178.601563,8 C177.517267,8 176.51118,8.18245101 175.583272,8.54735849 C174.655365,8.91226598 173.857793,9.39185148 173.190534,9.98612938 C172.523274,10.5804073 172.001986,11.2632953 171.626652,12.034814 C171.251319,12.8063327 171.063655,13.6091171 171.063655,14.4431914 C171.063655,15.5691916 171.246106,16.5075111 171.611013,17.2581779 C171.975921,18.0088447 172.460719,18.6396039 173.065423,19.1504744 C173.670127,19.6613449 174.358228,20.0783757 175.129747,20.4015795 C175.901265,20.7247833 176.693624,21.0062791 177.506846,21.2460755 C178.320069,21.4858718 179.112427,21.7204517 179.883946,21.9498221 C180.655465,22.1791925 181.343566,22.4606884 181.94827,22.7943181 C182.552973,23.1279478 183.037772,23.5449786 183.402679,24.0454232 C183.767587,24.5458677 183.950038,25.1818398 183.950038,25.9533585 C183.950038,26.3703956 183.866632,26.855194 183.699817,27.4077682 C183.533002,27.9603424 183.246293,28.4868439 182.839682,28.9872884 C182.433071,29.487733 181.875292,29.9099767 181.166329,30.2540323 C180.457366,30.598088 179.550324,30.7701132 178.445175,30.7701132 C178.132397,30.7701132 177.79356,30.7649003 177.428652,30.7544744 C177.063745,30.7440485 176.677991,30.6814938 176.27138,30.5668086 C175.864769,30.4521234 175.437312,30.2696724 174.988997,30.0194501 C174.540682,29.7692279 174.076736,29.4043258 173.597143,28.9247332 C173.159254,28.507696 172.789139,28.054175 172.486787,27.5641563 C172.184435,27.0741377 171.934217,26.5945522 171.736124,26.1253854 C171.538031,25.6562187 171.386858,25.2183363 171.282598,24.8117251 C171.178339,24.4051139 171.105359,24.0767021 171.063655,23.8264798 L170.594491,23.8264798 Z M190.049175,8.50044205 L190.049175,8.93832884 L192.926717,8.93832884 L192.926717,30.3322264 L190.049175,30.3322264 L190.049175,30.7701132 L210.03558,30.7701132 L210.03558,23.9203127 L209.62897,23.9203127 C209.420452,24.8169425 209.118104,25.6562171 208.721919,26.4381617 C208.325734,27.2201063 207.83051,27.9029944 207.236232,28.4868464 C206.641954,29.0706983 205.959066,29.5242194 205.187547,29.8474232 C204.416028,30.170627 203.550689,30.3322264 202.591504,30.3322264 L197.461973,30.3322264 L197.461973,19.0410027 L199.557574,19.0410027 C200.287389,19.0410027 200.897297,19.166112 201.387315,19.4163342 C201.877334,19.6665565 202.289152,20.0053941 202.622782,20.4328571 C202.956411,20.8603202 203.222269,21.3555444 203.420361,21.9185445 C203.618454,22.4815446 203.790479,23.0653878 203.936442,23.6700916 L204.343051,23.6700916 L204.343051,13.9427493 L203.936442,13.9427493 C203.790479,14.6517124 203.602815,15.2928974 203.373445,15.8663235 C203.144074,16.4397495 202.852153,16.9297608 202.497671,17.336372 C202.14319,17.7429832 201.700094,18.0557563 201.168372,18.2747008 C200.63665,18.4936453 199.985039,18.6031159 199.21352,18.6031159 L197.461973,18.6031159 L197.461973,8.93832884 L202.435116,8.93832884 C203.456857,8.93832884 204.322196,9.13120562 205.031159,9.51696496 C205.740122,9.9027243 206.318752,10.3562454 206.767067,10.8775418 C207.215382,11.3988382 207.564646,11.9357654 207.814868,12.4883396 C208.06509,13.0409138 208.242328,13.4944349 208.346588,13.8489164 L208.753197,13.8489164 L208.753197,8.50044205 L190.049175,8.50044205 Z M220.232086,8.93832884 L220.232086,30.3322264 L217.354544,30.3322264 L217.354544,30.7701132 L227.644884,30.7701132 L227.644884,30.3322264 L224.767342,30.3322264 L224.767342,8.93832884 L225.893337,8.93832884 C226.664856,8.93832884 227.352957,9.01652213 227.95766,9.17291105 C228.562364,9.32929997 229.104504,9.60037004 229.584097,9.98612938 C230.06369,10.3718887 230.491146,10.908816 230.86648,11.5969272 C231.241813,12.2850385 231.585864,13.1608033 231.898642,14.224248 L232.305251,14.224248 L232.305251,8.50044205 L212.694178,8.50044205 L212.694178,14.224248 L213.100787,14.224248 C213.413565,13.1608033 213.757615,12.2850385 214.132949,11.5969272 C214.508282,10.908816 214.935739,10.3718887 215.415332,9.98612938 C215.894924,9.60037004 216.437064,9.32929997 217.041768,9.17291105 C217.646472,9.01652213 218.334573,8.93832884 219.106092,8.93832884 L220.232086,8.93832884 Z" id="path-2"></path>
        <filter x="-5.3%" y="-21.5%" width="110.5%" height="160.3%" filterUnits="objectBoundingBox" id="filter-3">
            <feOffset dx="0" dy="2" in="SourceAlpha" result="shadowOffsetOuter1"></feOffset>
            <feGaussianBlur stdDeviation="2" in="shadowOffsetOuter1" result="shadowBlurOuter1"></feGaussianBlur>
            <feColorMatrix values="0 0 0 0 0   0 0 0 0 0   0 0 0 0 0  0 0 0 0.5 0" type="matrix" in="shadowBlurOuter1"></feColorMatrix>
        </filter>
    </defs>
    <g id="로그인" stroke="none" stroke-width="1" fill="none" fill-rule="evenodd">
        <g id="로그인창" transform="translate(-203.000000, -122.000000)">
            <g id="Group" transform="translate(209.000000, 126.000000)">
                <g id="logo" filter="url(#filter-1)" stroke-width="3">
                    <path d="M38.5955332,13 C69.0882447,24.1821908 81.4228056,31.5010297 75.599216,34.9565167 C66.8638314,40.1397472 11.0219609,40.5519699 1.59185049,34.9565167 C-4.69488978,31.2262145 7.63967113,23.9073756 38.5955332,13 Z" id="Triangle" stroke="#0A0000"></path>
                    <polyline id="Path-2" stroke="#0F0000" points="32 5.38487037 37.8717532 0 45 5.38487037 37.8717532 9.76867527 37.8717532 14"></polyline>
                </g>
                <g id="closet">
                    <use fill="black" fill-opacity="1" filter="url(#filter-3)" xlink:href="#path-2"></use>
                    <use fill="#000000" fill-rule="evenodd" xlink:href="#path-2"></use>
                </g>
            </g>
        </g>
    </g>
</svg>
